<svg xmlns="http://www.w3.org/2000/svg" viewBox="0 0 50 58" width="50" height="58">
	<style>
		tspan { white-space:pre }
		.shp0 { fill: #ed4e08 } 
		.txt1 { font-size: 7px;fill: #ed4e08;font-weight: bold;font-family: "Florencesans" } 
	</style>
	<g id="Group_4291">
		<path id="Path_231" class="shp0" d="M71.1 23.3C71 23.14 70.89 22.98 70.77 22.83C70.64 22.68 70.51 22.54 70.36 22.41C70.22 22.28 70.06 22.16 69.9 22.06C69.74 21.96 69.56 21.87 69.39 21.79C69.19 21.71 69 21.64 68.8 21.58C68.6 21.51 68.4 21.46 68.2 21.42C68 21.38 67.79 21.35 67.58 21.33C67.38 21.31 67.17 21.3 66.96 21.31C66.83 21.31 66.7 21.31 66.57 21.32C66.44 21.33 66.31 21.34 66.18 21.35C66.05 21.37 65.92 21.38 65.8 21.41C65.67 21.43 65.54 21.46 65.41 21.48C65.29 21.51 65.17 21.55 65.04 21.58C64.92 21.62 64.8 21.67 64.69 21.71C64.57 21.76 64.45 21.81 64.34 21.87C64.23 21.93 64.12 21.99 64.01 22.05C63.9 22.12 63.8 22.19 63.7 22.27C63.6 22.34 63.5 22.42 63.41 22.51C63.32 22.59 63.23 22.68 63.15 22.78C63.07 22.87 62.99 22.97 62.92 23.07C62.84 23.18 62.77 23.29 62.71 23.41C62.65 23.53 62.6 23.65 62.55 23.78C62.5 23.9 62.46 24.03 62.43 24.16C62.4 24.29 62.38 24.42 62.37 24.55C62.33 24.72 62.31 24.9 62.32 25.08C62.32 25.26 62.35 25.44 62.4 25.61C62.46 25.78 62.53 25.95 62.63 26.1C62.72 26.25 62.84 26.39 62.97 26.51C63.12 26.64 63.28 26.75 63.44 26.87C63.6 26.98 63.77 27.08 63.94 27.18C64.11 27.28 64.29 27.37 64.47 27.46C64.65 27.54 64.83 27.62 65.02 27.69C65.86 28.02 66.78 28.34 67.76 28.65C68 28.72 68.24 28.8 68.47 28.9C68.7 28.99 68.93 29.09 69.16 29.19C69.39 29.3 69.61 29.42 69.83 29.54C70.05 29.66 70.26 29.79 70.47 29.93C70.67 30.07 70.87 30.22 71.05 30.38C71.24 30.54 71.41 30.71 71.57 30.89C71.73 31.08 71.88 31.27 72.02 31.47C72.16 31.67 72.28 31.89 72.39 32.1C72.51 32.39 72.62 32.68 72.69 32.97C72.77 33.27 72.83 33.57 72.86 33.88C72.89 34.18 72.9 34.49 72.88 34.79C72.87 35.1 72.83 35.4 72.77 35.7C72.69 36.31 72.56 36.9 72.36 37.47C72.17 38.04 71.91 38.6 71.6 39.12C71.29 39.64 70.93 40.12 70.52 40.57C70.1 41.01 69.65 41.41 69.15 41.76C68.91 41.93 68.67 42.09 68.42 42.24C68.16 42.38 67.9 42.52 67.64 42.65C67.38 42.77 67.11 42.89 66.83 42.99C66.56 43.09 66.28 43.18 66 43.26C65.71 43.34 65.41 43.42 65.11 43.48C64.82 43.54 64.52 43.6 64.22 43.64C63.92 43.68 63.61 43.71 63.31 43.73C63.01 43.75 62.7 43.76 62.4 43.76C62.02 43.76 61.65 43.75 61.28 43.71C60.9 43.68 60.53 43.63 60.16 43.56C59.79 43.49 59.43 43.41 59.07 43.31C58.71 43.21 58.35 43.09 58 42.96C57.66 42.83 57.33 42.68 57.01 42.5C56.69 42.32 56.39 42.12 56.11 41.9C55.82 41.67 55.55 41.43 55.3 41.16C55.05 40.9 54.82 40.62 54.61 40.32L58.46 37.04C58.57 37.24 58.69 37.43 58.83 37.62C58.97 37.81 59.12 37.98 59.28 38.14C59.44 38.31 59.61 38.46 59.79 38.6C59.98 38.74 60.17 38.87 60.37 38.98C60.58 39.1 60.79 39.2 61.01 39.29C61.23 39.37 61.46 39.45 61.69 39.51C61.92 39.56 62.15 39.61 62.39 39.64C62.62 39.66 62.86 39.68 63.1 39.67C63.23 39.67 63.37 39.67 63.5 39.66C63.63 39.65 63.76 39.64 63.9 39.62C64.03 39.6 64.16 39.58 64.29 39.55C64.42 39.53 64.55 39.49 64.68 39.46C64.81 39.42 64.94 39.39 65.07 39.34C65.2 39.3 65.33 39.25 65.46 39.19C65.58 39.14 65.7 39.08 65.83 39.02C65.95 38.96 66.07 38.89 66.18 38.82C66.3 38.75 66.41 38.67 66.52 38.59C66.63 38.51 66.73 38.42 66.83 38.33C66.93 38.24 67.03 38.15 67.12 38.05C67.21 37.95 67.29 37.84 67.38 37.73C67.46 37.62 67.53 37.51 67.6 37.39C67.67 37.27 67.73 37.14 67.79 37.02C67.84 36.89 67.89 36.76 67.93 36.63C67.96 36.49 67.99 36.36 68.02 36.22C68.06 36.03 68.08 35.84 68.07 35.65C68.07 35.45 68.04 35.26 67.98 35.08C67.93 34.89 67.86 34.71 67.76 34.54C67.67 34.38 67.55 34.22 67.42 34.08C67.27 33.94 67.11 33.82 66.95 33.69C66.79 33.57 66.62 33.46 66.45 33.35C66.28 33.25 66.1 33.15 65.92 33.06C65.74 32.97 65.55 32.89 65.37 32.81C64.52 32.47 63.61 32.14 62.62 31.82C62.38 31.75 62.15 31.67 61.92 31.58C61.69 31.49 61.46 31.39 61.23 31.28C61.01 31.18 60.79 31.07 60.57 30.94C60.35 30.82 60.14 30.69 59.93 30.56C59.47 30.26 59.05 29.9 58.7 29.48C58.34 29.06 58.06 28.58 57.85 28.07C57.64 27.56 57.52 27.02 57.48 26.47C57.44 25.92 57.48 25.37 57.61 24.84C57.65 24.54 57.71 24.24 57.78 23.95C57.85 23.65 57.94 23.36 58.05 23.08C58.16 22.8 58.28 22.52 58.42 22.25C58.56 21.98 58.71 21.72 58.88 21.47C59.05 21.24 59.22 21.01 59.41 20.79C59.59 20.58 59.78 20.37 59.99 20.17C60.19 19.97 60.41 19.78 60.63 19.6C60.85 19.43 61.08 19.26 61.32 19.1C61.57 18.94 61.82 18.79 62.08 18.66C62.33 18.52 62.59 18.39 62.86 18.27C63.13 18.15 63.4 18.05 63.68 17.95C63.95 17.85 64.23 17.77 64.51 17.69C64.8 17.62 65.08 17.55 65.37 17.49C65.66 17.44 65.95 17.39 66.24 17.35C66.54 17.31 66.83 17.28 67.12 17.26C67.42 17.24 67.71 17.23 68 17.23C68.33 17.23 68.65 17.24 68.97 17.27C69.29 17.29 69.61 17.33 69.93 17.38C70.25 17.43 70.56 17.49 70.88 17.57C71.19 17.65 71.5 17.74 71.8 17.84C72.1 17.93 72.38 18.05 72.66 18.18C72.93 18.31 73.2 18.46 73.46 18.63C73.72 18.8 73.96 18.98 74.19 19.18C74.43 19.38 74.65 19.6 74.85 19.82L71.1 23.3Z" />
		<path id="Path_232" class="shp0" d="M81.59 28.41L81.66 28.41C81.79 28.22 81.93 28.03 82.08 27.84C82.23 27.66 82.39 27.49 82.56 27.32C82.73 27.16 82.91 27.01 83.1 26.87C83.29 26.72 83.49 26.59 83.69 26.47C84.16 26.22 84.66 26.01 85.18 25.87C85.7 25.72 86.23 25.64 86.77 25.61C87.3 25.58 87.84 25.62 88.37 25.71C88.9 25.81 89.41 25.96 89.91 26.17C90.08 26.26 90.25 26.35 90.41 26.46C90.57 26.57 90.73 26.68 90.87 26.81C91.02 26.94 91.16 27.07 91.28 27.22C91.41 27.36 91.53 27.51 91.64 27.67C91.74 27.83 91.83 28 91.92 28.17C92 28.34 92.07 28.52 92.14 28.7C92.2 28.88 92.25 29.06 92.29 29.25C92.33 29.43 92.37 29.62 92.39 29.81C92.41 30.02 92.43 30.23 92.44 30.44C92.45 30.65 92.45 30.87 92.45 31.08C92.44 31.29 92.43 31.5 92.42 31.71C92.4 31.92 92.38 32.13 92.35 32.34L90.85 43.14L86.57 43.14L87.79 34.48C87.81 34.35 87.82 34.22 87.84 34.09C87.85 33.96 87.87 33.82 87.88 33.69C87.89 33.56 87.9 33.43 87.91 33.29C87.92 33.16 87.92 33.03 87.93 32.9C87.94 32.76 87.94 32.62 87.93 32.48C87.93 32.34 87.92 32.2 87.91 32.06C87.9 31.93 87.88 31.79 87.85 31.65C87.83 31.51 87.8 31.38 87.77 31.24C87.74 31.12 87.7 31 87.65 30.88C87.6 30.77 87.55 30.65 87.48 30.54C87.42 30.44 87.34 30.33 87.26 30.23C87.18 30.14 87.09 30.04 87 29.96C86.88 29.87 86.76 29.79 86.63 29.72C86.49 29.65 86.35 29.59 86.21 29.55C86.07 29.5 85.92 29.47 85.77 29.45C85.63 29.44 85.48 29.43 85.33 29.44C85.17 29.44 85.01 29.44 84.85 29.46C84.69 29.47 84.54 29.49 84.38 29.52C84.22 29.55 84.07 29.59 83.92 29.64C83.77 29.68 83.62 29.74 83.47 29.8C83.35 29.86 83.22 29.92 83.11 29.99C82.99 30.06 82.87 30.13 82.76 30.21C82.65 30.29 82.54 30.38 82.44 30.47C82.34 30.56 82.24 30.66 82.15 30.76C82.06 30.87 81.97 30.97 81.88 31.08C81.8 31.19 81.72 31.3 81.65 31.42C81.57 31.54 81.5 31.66 81.44 31.78C81.37 31.9 81.32 32.02 81.26 32.15C81.2 32.28 81.15 32.42 81.1 32.55C81.06 32.69 81.01 32.82 80.98 32.96C80.94 33.1 80.91 33.24 80.88 33.38C80.85 33.52 80.83 33.66 80.82 33.81L79.53 43.14L75.24 43.14L79.02 16.18L83.3 16.18L81.59 28.41Z" />
		<path id="Path_233" fill-rule="evenodd" class="shp0" d="M93.71 34.56C93.76 34.24 93.81 33.92 93.89 33.6C93.96 33.28 94.05 32.97 94.16 32.66C94.26 32.35 94.38 32.04 94.52 31.75C94.65 31.45 94.8 31.16 94.96 30.87C95.12 30.6 95.28 30.34 95.46 30.09C95.64 29.83 95.83 29.59 96.03 29.35C96.23 29.11 96.44 28.88 96.66 28.67C96.88 28.45 97.11 28.24 97.35 28.04C97.59 27.84 97.84 27.66 98.09 27.48C98.35 27.31 98.61 27.14 98.88 26.99C99.15 26.84 99.43 26.7 99.71 26.57C99.99 26.44 100.28 26.33 100.57 26.23C100.87 26.12 101.17 26.03 101.48 25.95C101.79 25.86 102.1 25.8 102.41 25.74C102.72 25.69 103.03 25.65 103.35 25.62C103.67 25.6 103.98 25.58 104.3 25.59C104.6 25.58 104.9 25.59 105.2 25.62C105.5 25.64 105.8 25.68 106.09 25.74C106.39 25.79 106.68 25.86 106.97 25.94C107.26 26.02 107.54 26.12 107.82 26.23C108.07 26.32 108.32 26.44 108.57 26.56C108.81 26.69 109.04 26.83 109.27 26.98C109.49 27.13 109.71 27.3 109.92 27.48C110.13 27.65 110.32 27.84 110.51 28.04C110.69 28.24 110.87 28.46 111.03 28.68C111.19 28.9 111.33 29.13 111.47 29.37C111.6 29.6 111.72 29.85 111.83 30.1C111.93 30.35 112.02 30.61 112.1 30.87C112.18 31.17 112.25 31.48 112.3 31.78C112.35 32.09 112.39 32.4 112.4 32.71C112.42 33.02 112.42 33.33 112.41 33.64C112.39 33.95 112.36 34.26 112.31 34.56C112.27 34.89 112.21 35.21 112.14 35.53C112.06 35.84 111.97 36.16 111.87 36.47C111.76 36.78 111.64 37.08 111.51 37.38C111.38 37.68 111.23 37.97 111.06 38.25C110.91 38.52 110.74 38.78 110.57 39.04C110.39 39.29 110.2 39.54 110 39.77C109.8 40.01 109.6 40.24 109.38 40.46C109.16 40.68 108.93 40.89 108.69 41.08C108.46 41.28 108.21 41.47 107.96 41.64C107.7 41.82 107.44 41.98 107.17 42.14C106.9 42.29 106.63 42.43 106.35 42.56C106.07 42.68 105.78 42.8 105.49 42.9C105.19 43.01 104.89 43.1 104.58 43.18C104.27 43.26 103.97 43.33 103.65 43.38C103.34 43.44 103.03 43.48 102.71 43.5C102.4 43.53 102.08 43.54 101.76 43.54C101.46 43.54 101.16 43.53 100.86 43.51C100.56 43.48 100.26 43.44 99.97 43.39C99.67 43.33 99.38 43.27 99.09 43.19C98.8 43.1 98.51 43.01 98.23 42.9C97.98 42.8 97.73 42.69 97.48 42.56C97.24 42.44 97 42.3 96.78 42.15C96.55 41.99 96.33 41.83 96.12 41.65C95.91 41.47 95.71 41.28 95.52 41.09C95.34 40.88 95.17 40.67 95.01 40.45C94.85 40.23 94.7 40 94.57 39.76C94.43 39.52 94.32 39.28 94.21 39.02C94.1 38.77 94.01 38.51 93.94 38.25C93.85 37.95 93.78 37.65 93.73 37.34C93.68 37.04 93.64 36.73 93.62 36.42C93.61 36.11 93.6 35.8 93.62 35.49C93.63 35.18 93.66 34.87 93.71 34.56L93.71 34.56ZM97.99 34.56C97.97 34.72 97.95 34.88 97.94 35.05C97.93 35.21 97.93 35.37 97.94 35.53C97.94 35.69 97.96 35.85 97.98 36.01C98 36.17 98.03 36.33 98.06 36.49C98.1 36.64 98.14 36.79 98.19 36.93C98.23 37.08 98.29 37.22 98.35 37.36C98.42 37.5 98.49 37.63 98.57 37.76C98.65 37.89 98.74 38.02 98.83 38.14C98.92 38.26 99.02 38.38 99.13 38.49C99.24 38.6 99.35 38.7 99.47 38.79C99.59 38.89 99.72 38.98 99.85 39.06C99.98 39.14 100.11 39.22 100.25 39.28C100.41 39.36 100.58 39.42 100.74 39.48C100.91 39.53 101.08 39.58 101.25 39.61C101.43 39.65 101.6 39.67 101.78 39.69C101.95 39.71 102.13 39.71 102.3 39.71C102.49 39.71 102.67 39.7 102.86 39.69C103.05 39.67 103.23 39.64 103.41 39.61C103.59 39.57 103.78 39.53 103.95 39.47C104.13 39.42 104.31 39.35 104.48 39.28C104.8 39.15 105.1 38.99 105.39 38.8C105.68 38.61 105.95 38.4 106.21 38.16C106.46 37.92 106.69 37.66 106.89 37.38C107.1 37.11 107.28 36.81 107.43 36.5C107.51 36.35 107.58 36.2 107.64 36.04C107.71 35.88 107.77 35.73 107.82 35.56C107.87 35.4 107.91 35.24 107.95 35.08C107.99 34.91 108.02 34.75 108.04 34.58C108.07 34.42 108.08 34.26 108.09 34.1C108.1 33.94 108.1 33.77 108.09 33.61C108.09 33.45 108.07 33.29 108.05 33.13C108.03 32.97 108 32.81 107.97 32.65C107.94 32.5 107.9 32.36 107.85 32.21C107.8 32.07 107.74 31.92 107.68 31.78C107.61 31.65 107.54 31.51 107.46 31.38C107.38 31.25 107.3 31.12 107.2 31C107.11 30.88 107.01 30.76 106.9 30.66C106.79 30.55 106.68 30.44 106.56 30.35C106.44 30.25 106.31 30.16 106.18 30.08C106.05 30 105.92 29.93 105.78 29.86C105.62 29.79 105.45 29.72 105.29 29.67C105.12 29.61 104.95 29.57 104.78 29.53C104.6 29.49 104.43 29.47 104.25 29.45C104.08 29.44 103.9 29.43 103.73 29.43C103.54 29.43 103.36 29.44 103.17 29.46C102.99 29.47 102.81 29.5 102.63 29.54C102.45 29.57 102.27 29.62 102.09 29.67C101.92 29.72 101.74 29.79 101.57 29.86C101.41 29.93 101.26 30 101.1 30.09C100.95 30.17 100.8 30.26 100.66 30.35C100.51 30.45 100.37 30.55 100.24 30.66C100.1 30.77 99.97 30.88 99.84 31C99.72 31.12 99.6 31.25 99.49 31.37C99.37 31.5 99.26 31.64 99.16 31.78C99.06 31.91 98.96 32.06 98.87 32.2C98.78 32.35 98.69 32.5 98.62 32.65C98.54 32.8 98.47 32.96 98.4 33.11C98.34 33.27 98.28 33.42 98.22 33.58C98.17 33.74 98.13 33.9 98.09 34.07C98.05 34.23 98.02 34.4 97.99 34.56L97.99 34.56Z" />
		<path id="Path_234" fill-rule="evenodd" class="shp0" d="M116.37 26.01L120.43 26.01L120.07 28.58L120.14 28.58C120.32 28.33 120.51 28.09 120.72 27.87C120.93 27.64 121.16 27.43 121.39 27.24C121.63 27.05 121.88 26.87 122.14 26.71C122.41 26.56 122.68 26.42 122.96 26.29C123.24 26.18 123.52 26.07 123.8 25.99C124.09 25.9 124.38 25.82 124.67 25.76C124.96 25.7 125.26 25.66 125.56 25.63C125.85 25.6 126.15 25.58 126.45 25.58C126.75 25.58 127.04 25.59 127.33 25.61C127.63 25.64 127.92 25.68 128.21 25.74C128.5 25.8 128.78 25.87 129.06 25.96C129.34 26.05 129.62 26.16 129.89 26.28C130.12 26.38 130.35 26.5 130.57 26.64C130.79 26.77 131 26.92 131.2 27.08C131.4 27.24 131.59 27.41 131.77 27.6C131.95 27.78 132.12 27.97 132.28 28.18C132.43 28.39 132.58 28.61 132.71 28.83C132.84 29.06 132.96 29.3 133.06 29.54C133.17 29.77 133.26 30.02 133.33 30.27C133.41 30.52 133.48 30.77 133.52 31.03C133.58 31.32 133.63 31.61 133.66 31.91C133.69 32.2 133.71 32.5 133.72 32.79C133.72 33.09 133.72 33.38 133.7 33.68C133.69 33.97 133.66 34.27 133.61 34.56C133.57 34.86 133.51 35.17 133.44 35.47C133.38 35.77 133.29 36.07 133.2 36.37C133.11 36.66 133.01 36.95 132.89 37.24C132.78 37.53 132.65 37.81 132.51 38.09C132.38 38.35 132.24 38.61 132.09 38.86C131.93 39.12 131.77 39.36 131.59 39.6C131.42 39.84 131.23 40.07 131.04 40.29C130.85 40.52 130.64 40.73 130.43 40.94C130.22 41.14 130 41.33 129.77 41.51C129.55 41.69 129.31 41.86 129.07 42.02C128.83 42.18 128.58 42.33 128.33 42.47C128.07 42.6 127.81 42.73 127.54 42.84C127.27 42.96 126.99 43.06 126.71 43.15C126.43 43.24 126.15 43.31 125.86 43.37C125.57 43.43 125.28 43.47 124.99 43.5C124.69 43.53 124.4 43.54 124.1 43.54C123.93 43.54 123.75 43.54 123.57 43.53C123.4 43.52 123.22 43.51 123.05 43.48C122.87 43.46 122.7 43.44 122.52 43.4C122.35 43.37 122.18 43.33 122 43.29C121.87 43.25 121.73 43.21 121.6 43.17C121.47 43.12 121.34 43.07 121.21 43.02C121.08 42.97 120.95 42.91 120.82 42.85C120.7 42.79 120.57 42.72 120.45 42.65C120.35 42.59 120.26 42.53 120.16 42.47C120.07 42.4 119.97 42.34 119.88 42.27C119.79 42.2 119.7 42.12 119.62 42.05C119.53 41.97 119.45 41.89 119.36 41.81C119.3 41.75 119.24 41.68 119.17 41.61C119.11 41.54 119.05 41.46 118.99 41.39C118.93 41.32 118.87 41.24 118.82 41.17C118.76 41.09 118.71 41.02 118.65 40.94L118.54 40.94L117.08 51.24L112.8 51.24L116.37 26.01ZM129.34 34.56C129.36 34.4 129.38 34.24 129.39 34.08C129.4 33.92 129.4 33.76 129.39 33.6C129.39 33.44 129.37 33.28 129.35 33.12C129.33 32.96 129.3 32.8 129.27 32.64C129.24 32.49 129.19 32.34 129.15 32.2C129.1 32.05 129.04 31.91 128.98 31.77C128.91 31.63 128.84 31.5 128.76 31.37C128.68 31.24 128.59 31.11 128.5 30.99C128.41 30.87 128.3 30.75 128.2 30.64C128.09 30.53 127.97 30.43 127.86 30.33C127.74 30.24 127.61 30.15 127.48 30.07C127.35 29.99 127.21 29.91 127.08 29.85C126.92 29.77 126.75 29.71 126.59 29.65C126.42 29.6 126.25 29.55 126.08 29.52C125.9 29.48 125.73 29.45 125.55 29.44C125.38 29.42 125.2 29.42 125.03 29.42C124.84 29.42 124.66 29.43 124.47 29.44C124.29 29.46 124.11 29.49 123.93 29.52C123.74 29.56 123.57 29.6 123.39 29.66C123.21 29.71 123.04 29.77 122.87 29.85C122.71 29.91 122.55 29.99 122.4 30.07C122.25 30.15 122.1 30.24 121.95 30.34C121.81 30.44 121.67 30.54 121.53 30.65C121.4 30.75 121.27 30.87 121.14 30.99C121.02 31.11 120.9 31.23 120.78 31.36C120.67 31.49 120.56 31.62 120.46 31.76C120.35 31.9 120.26 32.04 120.17 32.19C120.07 32.34 119.99 32.49 119.91 32.64C119.83 32.79 119.76 32.94 119.69 33.1C119.63 33.26 119.57 33.41 119.52 33.58C119.47 33.74 119.42 33.9 119.38 34.06C119.34 34.23 119.31 34.4 119.29 34.56C119.26 34.72 119.25 34.88 119.24 35.05C119.23 35.21 119.23 35.37 119.23 35.53C119.24 35.69 119.25 35.85 119.27 36.01C119.29 36.17 119.32 36.33 119.36 36.49C119.39 36.64 119.43 36.79 119.48 36.93C119.53 37.08 119.59 37.22 119.65 37.36C119.71 37.5 119.79 37.63 119.87 37.76C119.95 37.89 120.03 38.02 120.13 38.14C120.22 38.26 120.32 38.38 120.43 38.49C120.54 38.6 120.65 38.7 120.77 38.79C120.89 38.89 121.02 38.98 121.15 39.06C121.28 39.14 121.41 39.22 121.55 39.28C121.71 39.36 121.87 39.42 122.04 39.48C122.21 39.53 122.38 39.58 122.55 39.61C122.72 39.65 122.9 39.67 123.07 39.69C123.25 39.71 123.42 39.71 123.6 39.71C123.79 39.71 123.97 39.7 124.16 39.69C124.34 39.67 124.53 39.64 124.71 39.61C124.89 39.57 125.07 39.53 125.25 39.47C125.43 39.42 125.6 39.35 125.77 39.28C126.09 39.15 126.4 38.99 126.69 38.8C126.98 38.61 127.26 38.4 127.51 38.16C127.76 37.92 128 37.67 128.2 37.39C128.41 37.11 128.59 36.81 128.75 36.5C128.82 36.35 128.89 36.19 128.95 36.04C129.02 35.88 129.07 35.72 129.12 35.56C129.17 35.39 129.21 35.23 129.25 35.06C129.29 34.9 129.31 34.73 129.34 34.56L129.34 34.56Z" />
		<g id="Group_4278">
			<path id="Rectangle_2" class="shp0" d="M43.26 29.85L43.26 29.85C43.26 31.77 41.72 33.31 39.8 33.31L38.02 33.31C36.1 33.31 34.56 31.77 34.56 29.85L34.56 29.85C34.56 27.94 36.1 26.39 38.02 26.39L39.8 26.39C41.72 26.39 43.26 27.94 43.26 29.85Z" />
			<path id="Path_240" class="shp0" d="M32.85 29.6C32.85 29.59 32.85 29.59 32.85 29.59C32.85 29.58 32.85 29.58 32.85 29.57C32.85 29.57 32.85 29.56 32.85 29.56C32.85 29.56 32.85 29.55 32.85 29.55C32.85 29.53 32.84 29.5 32.84 29.48C32.84 29.46 32.84 29.43 32.84 29.41C32.83 29.39 32.83 29.36 32.83 29.34C32.82 29.32 32.82 29.3 32.82 29.27C32.82 29.27 32.82 29.26 32.82 29.26C32.82 29.25 32.82 29.24 32.82 29.24C32.82 29.23 32.82 29.23 32.82 29.22C32.82 29.21 32.82 29.21 32.82 29.2C32.8 29.13 32.79 29.05 32.77 28.97L32.73 28.83L32.7 28.74C32.61 28.47 32.49 28.21 32.34 27.96C32.18 27.72 32 27.5 31.79 27.3C31.58 27.11 31.35 26.94 31.1 26.8C30.85 26.66 30.58 26.55 30.3 26.48L30.26 26.48L30.11 26.44L29.89 26.41L29.8 26.41C29.71 26.41 29.63 26.39 29.54 26.39L1.9 26.39L0.84 27.62C0.54 27.95 0.32 28.35 0.18 28.77C0.03 29.2 -0.02 29.65 0.01 30.09C0.04 30.54 0.16 30.98 0.36 31.38C0.55 31.78 0.83 32.14 1.17 32.43L1.23 32.49C1.41 32.64 1.6 32.78 1.8 32.89C2 33 2.21 33.1 2.43 33.17C2.65 33.24 2.88 33.28 3.11 33.31C3.34 33.33 3.57 33.33 3.8 33.31L21.78 33.31L5.28 52.27C4.99 52.61 4.76 53.01 4.61 53.44C4.47 53.87 4.41 54.33 4.44 54.78C4.47 55.23 4.59 55.68 4.79 56.08C4.99 56.49 5.27 56.85 5.62 57.15L5.62 57.15C5.96 57.45 6.36 57.68 6.79 57.82C7.22 57.97 7.67 58.02 8.12 57.99C8.58 57.96 9.02 57.84 9.43 57.64C9.83 57.44 10.2 57.16 10.5 56.82L31.99 32.12C32.04 32.07 32.08 32.01 32.13 31.95C32.17 31.89 32.21 31.83 32.25 31.77C32.29 31.71 32.33 31.64 32.37 31.58C32.41 31.52 32.44 31.45 32.47 31.38L32.5 31.34C32.53 31.28 32.56 31.21 32.58 31.14C32.61 31.07 32.62 31.04 32.64 31L32.68 30.88C32.7 30.81 32.72 30.73 32.74 30.65L32.76 30.57C32.76 30.55 32.76 30.53 32.77 30.5C32.77 30.48 32.77 30.46 32.78 30.44C32.78 30.41 32.78 30.39 32.79 30.37C32.79 30.35 32.8 30.32 32.8 30.3C32.8 30.3 32.8 30.29 32.8 30.29C32.8 30.28 32.8 30.28 32.8 30.28C32.8 30.27 32.8 30.27 32.8 30.26C32.8 30.26 32.8 30.25 32.8 30.25C32.8 30.23 32.8 30.2 32.8 30.18C32.8 30.15 32.81 30.13 32.81 30.11C32.81 30.08 32.81 30.06 32.81 30.04C32.82 30.01 32.82 29.99 32.82 29.97L32.82 29.85L32.82 29.85C32.83 29.83 32.83 29.81 32.84 29.79C32.84 29.77 32.84 29.75 32.84 29.72C32.85 29.7 32.85 29.68 32.85 29.66C32.85 29.64 32.85 29.62 32.85 29.6Z" />
			<path id="Path_241" class="shp0" d="M28.86 5.72C29.15 5.38 29.37 4.98 29.52 4.56C29.66 4.13 29.71 3.68 29.68 3.24C29.65 2.79 29.54 2.35 29.34 1.95C29.14 1.55 28.86 1.19 28.52 0.9L28.46 0.84C28.12 0.54 27.73 0.32 27.3 0.18C26.88 0.03 26.43 -0.02 25.98 0.01C25.53 0.04 25.1 0.16 24.7 0.35C24.29 0.55 23.94 0.83 23.64 1.17L5.05 22.66L14.22 22.66L28.86 5.72Z" />
		</g>
		<g id="Group_14">
			<path id="Path_235" class="shp0" d="M142.82 21.95L135.08 21.95L135.64 17.89L155.6 17.89L155.03 21.95L147.3 21.95L144.35 43.11L139.86 43.11L142.82 21.95Z" />
			<path id="Path_236" class="shp0" d="M153.86 26.01L158.12 26.01L157.73 28.72L157.8 28.72C157.95 28.48 158.11 28.25 158.28 28.03C158.45 27.81 158.64 27.61 158.84 27.41C159.04 27.22 159.25 27.03 159.47 26.87C159.7 26.7 159.93 26.54 160.17 26.41C160.41 26.27 160.66 26.15 160.91 26.05C161.17 25.94 161.43 25.86 161.7 25.79C161.96 25.72 162.23 25.67 162.5 25.63C162.78 25.6 163.05 25.58 163.33 25.59C163.39 25.58 163.45 25.59 163.51 25.59C163.58 25.59 163.64 25.6 163.7 25.6C163.76 25.61 163.83 25.61 163.89 25.62C163.95 25.63 164.01 25.64 164.07 25.65C164.31 25.7 164.56 25.76 164.82 25.83L164.22 29.97C163.89 29.87 163.56 29.79 163.23 29.74C163.15 29.72 163.07 29.71 162.99 29.7C162.9 29.69 162.82 29.68 162.74 29.67C162.66 29.66 162.57 29.66 162.49 29.65C162.41 29.65 162.32 29.65 162.24 29.65C162.02 29.64 161.81 29.64 161.59 29.66C161.38 29.68 161.17 29.72 160.95 29.76C160.74 29.81 160.54 29.87 160.33 29.94C160.13 30.01 159.93 30.1 159.74 30.2C159.59 30.28 159.44 30.36 159.3 30.46C159.16 30.55 159.02 30.65 158.89 30.76C158.76 30.86 158.63 30.98 158.51 31.09C158.38 31.21 158.27 31.34 158.16 31.46C158.07 31.57 157.98 31.68 157.9 31.79C157.82 31.9 157.74 32.02 157.67 32.14C157.6 32.26 157.54 32.38 157.48 32.51C157.42 32.63 157.36 32.76 157.32 32.89C157.28 32.98 157.25 33.06 157.22 33.15C157.2 33.24 157.17 33.33 157.15 33.42C157.12 33.51 157.1 33.6 157.08 33.69C157.06 33.78 157.05 33.87 157.03 33.96L155.75 43.12L151.48 43.12L153.86 26.01Z" />
			<path id="Path_237" fill-rule="evenodd" class="shp0" d="M176.35 40.77L176.24 40.77C176.07 40.99 175.88 41.21 175.68 41.42C175.49 41.62 175.27 41.81 175.05 41.99C174.83 42.17 174.6 42.33 174.35 42.48C174.11 42.63 173.86 42.77 173.6 42.88C173.34 42.99 173.08 43.09 172.82 43.17C172.56 43.26 172.29 43.33 172.02 43.38C171.75 43.44 171.47 43.48 171.2 43.51C170.92 43.53 170.65 43.55 170.37 43.55C170.18 43.55 169.99 43.54 169.8 43.52C169.61 43.51 169.42 43.49 169.23 43.46C169.04 43.43 168.85 43.4 168.66 43.36C168.48 43.32 168.29 43.27 168.11 43.22C167.94 43.17 167.77 43.11 167.61 43.05C167.44 42.98 167.28 42.91 167.12 42.83C166.97 42.75 166.81 42.66 166.66 42.56C166.52 42.47 166.37 42.36 166.24 42.25C166.11 42.15 165.98 42.03 165.87 41.91C165.75 41.79 165.65 41.66 165.55 41.52C165.45 41.39 165.36 41.25 165.28 41.1C165.2 40.95 165.13 40.8 165.07 40.65C165 40.47 164.94 40.29 164.9 40.1C164.86 39.91 164.83 39.73 164.81 39.54C164.79 39.35 164.79 39.16 164.79 38.97C164.8 38.78 164.82 38.59 164.85 38.4C164.88 38.1 164.94 37.79 165.02 37.5C165.1 37.2 165.21 36.92 165.34 36.64C165.47 36.36 165.62 36.1 165.8 35.84C165.97 35.59 166.17 35.36 166.39 35.14C166.6 34.94 166.82 34.75 167.05 34.58C167.28 34.4 167.52 34.23 167.77 34.08C168.02 33.93 168.27 33.79 168.54 33.67C168.8 33.55 169.07 33.44 169.34 33.34C169.64 33.24 169.93 33.15 170.23 33.06C170.53 32.98 170.83 32.91 171.13 32.85C171.43 32.78 171.73 32.73 172.04 32.69C172.35 32.65 172.65 32.62 172.96 32.59C174.23 32.5 175.4 32.45 176.47 32.45L177.54 32.45L177.58 31.99C177.63 31.77 177.66 31.55 177.65 31.33C177.65 31.11 177.61 30.89 177.54 30.68C177.48 30.47 177.38 30.27 177.26 30.08C177.14 29.89 176.99 29.73 176.83 29.58C176.63 29.44 176.43 29.32 176.21 29.21C175.99 29.1 175.77 29.02 175.54 28.95C175.31 28.88 175.07 28.83 174.84 28.8C174.6 28.78 174.36 28.77 174.12 28.78C173.9 28.78 173.67 28.79 173.45 28.81C173.23 28.83 173.01 28.86 172.79 28.9C172.58 28.94 172.36 28.99 172.15 29.05C171.93 29.11 171.72 29.18 171.52 29.26C171.32 29.34 171.12 29.42 170.93 29.51C170.73 29.61 170.54 29.71 170.36 29.82C170.17 29.93 169.99 30.04 169.82 30.17C169.64 30.29 169.47 30.42 169.31 30.56L167.38 28.33C167.64 28.09 167.91 27.86 168.19 27.66C168.48 27.45 168.77 27.25 169.08 27.08C169.38 26.9 169.69 26.74 170.01 26.6C170.34 26.46 170.66 26.33 171 26.23C171.32 26.12 171.65 26.03 171.99 25.95C172.32 25.87 172.66 25.8 173 25.75C173.33 25.69 173.67 25.65 174.02 25.63C174.36 25.6 174.7 25.59 175.04 25.59C175.3 25.58 175.55 25.58 175.8 25.6C176.06 25.61 176.31 25.63 176.56 25.67C176.82 25.7 177.07 25.75 177.32 25.8C177.56 25.85 177.81 25.92 178.05 25.99C178.23 26.05 178.4 26.11 178.57 26.18C178.74 26.26 178.91 26.34 179.07 26.43C179.23 26.51 179.39 26.61 179.54 26.71C179.69 26.82 179.84 26.93 179.98 27.05C180.09 27.15 180.2 27.25 180.31 27.36C180.41 27.48 180.51 27.6 180.6 27.72C180.68 27.84 180.77 27.97 180.84 28.11C180.91 28.24 180.97 28.38 181.03 28.53C181.08 28.66 181.13 28.8 181.17 28.94C181.22 29.08 181.25 29.22 181.29 29.36C181.32 29.5 181.35 29.64 181.37 29.79C181.39 29.93 181.41 30.07 181.42 30.22C181.43 30.36 181.44 30.49 181.45 30.63C181.46 30.77 181.46 30.91 181.46 31.04C181.46 31.18 181.46 31.32 181.45 31.46C181.44 31.6 181.43 31.73 181.42 31.87C181.36 32.41 181.31 32.86 181.26 33.28L179.9 43.11L176.02 43.11L176.35 40.77ZM176.85 35.45L175.96 35.45C175.36 35.45 174.69 35.48 173.95 35.53C173.76 35.54 173.58 35.55 173.41 35.57C173.23 35.59 173.05 35.61 172.87 35.64C172.69 35.67 172.51 35.7 172.33 35.74C172.16 35.77 171.98 35.81 171.81 35.86C171.65 35.9 171.49 35.94 171.34 35.99C171.19 36.05 171.04 36.11 170.89 36.17C170.74 36.24 170.6 36.31 170.45 36.39C170.31 36.47 170.18 36.55 170.04 36.64C169.92 36.72 169.81 36.82 169.71 36.92C169.61 37.03 169.52 37.14 169.44 37.27C169.37 37.39 169.3 37.52 169.25 37.66C169.2 37.8 169.17 37.94 169.15 38.08C169.14 38.17 169.13 38.26 169.13 38.34C169.13 38.43 169.13 38.52 169.15 38.6C169.16 38.69 169.18 38.77 169.2 38.86C169.23 38.94 169.26 39.02 169.29 39.1C169.33 39.17 169.37 39.23 169.41 39.3C169.46 39.36 169.5 39.43 169.55 39.48C169.6 39.54 169.66 39.6 169.71 39.65C169.77 39.7 169.83 39.75 169.89 39.8C169.96 39.85 170.03 39.89 170.1 39.93C170.17 39.97 170.25 40.01 170.32 40.05C170.4 40.08 170.47 40.11 170.55 40.14C170.63 40.16 170.71 40.19 170.79 40.21C170.87 40.23 170.96 40.25 171.04 40.26C171.13 40.28 171.21 40.29 171.3 40.3C171.38 40.31 171.47 40.32 171.56 40.33C171.64 40.33 171.73 40.33 171.82 40.33C172.12 40.35 172.43 40.34 172.73 40.31C173.03 40.27 173.33 40.21 173.63 40.12C173.92 40.03 174.2 39.91 174.47 39.77C174.74 39.63 175 39.47 175.24 39.28C175.44 39.1 175.63 38.9 175.8 38.68C175.97 38.46 176.11 38.23 176.24 37.98C176.36 37.74 176.47 37.48 176.54 37.22C176.62 36.96 176.67 36.69 176.7 36.41L176.85 35.45Z" />
			<path id="Path_238" fill-rule="evenodd" class="shp0" d="M198.37 40.55L198.3 40.55C198.12 40.8 197.92 41.03 197.71 41.26C197.5 41.48 197.27 41.69 197.03 41.88C196.8 42.07 196.54 42.25 196.28 42.41C196.02 42.57 195.75 42.71 195.47 42.83C195.19 42.95 194.91 43.05 194.63 43.14C194.35 43.23 194.06 43.31 193.77 43.37C193.47 43.43 193.18 43.47 192.88 43.5C192.59 43.53 192.29 43.54 191.99 43.54C191.7 43.55 191.4 43.54 191.1 43.52C190.81 43.49 190.52 43.45 190.23 43.39C189.94 43.33 189.65 43.26 189.37 43.17C189.08 43.08 188.81 42.97 188.54 42.85C188.3 42.74 188.08 42.62 187.86 42.48C187.64 42.35 187.43 42.2 187.23 42.04C187.03 41.88 186.84 41.71 186.66 41.52C186.48 41.34 186.31 41.15 186.15 40.94C185.99 40.73 185.85 40.51 185.71 40.29C185.58 40.06 185.46 39.83 185.35 39.59C185.24 39.35 185.15 39.1 185.06 38.85C184.98 38.6 184.92 38.35 184.86 38.09C184.8 37.8 184.76 37.51 184.73 37.22C184.69 36.92 184.67 36.63 184.67 36.33C184.66 36.03 184.67 35.74 184.69 35.44C184.71 35.15 184.75 34.85 184.8 34.56C184.83 34.26 184.89 33.95 184.95 33.65C185.02 33.35 185.1 33.05 185.19 32.75C185.28 32.45 185.39 32.16 185.5 31.88C185.62 31.59 185.75 31.31 185.9 31.04C186.03 30.77 186.18 30.51 186.34 30.26C186.49 30.01 186.66 29.76 186.84 29.52C187.02 29.28 187.2 29.05 187.4 28.83C187.6 28.6 187.8 28.39 188.01 28.18C188.22 27.98 188.44 27.79 188.67 27.61C188.9 27.43 189.13 27.26 189.37 27.1C189.62 26.94 189.86 26.79 190.12 26.66C190.38 26.52 190.64 26.39 190.9 26.28C191.17 26.17 191.45 26.06 191.73 25.98C192.01 25.89 192.3 25.82 192.59 25.76C192.88 25.7 193.17 25.66 193.46 25.63C193.75 25.6 194.05 25.59 194.34 25.59C194.52 25.59 194.7 25.59 194.87 25.6C195.05 25.61 195.22 25.62 195.4 25.64C195.58 25.66 195.75 25.69 195.92 25.72C196.1 25.75 196.27 25.79 196.44 25.84C196.58 25.87 196.71 25.91 196.84 25.96C196.97 26 197.1 26.05 197.23 26.1C197.36 26.16 197.48 26.22 197.61 26.28C197.73 26.34 197.85 26.41 197.97 26.48C198.07 26.54 198.17 26.6 198.26 26.66C198.35 26.72 198.45 26.79 198.53 26.86C198.62 26.93 198.71 27 198.8 27.08C198.88 27.15 198.96 27.23 199.04 27.31C199.11 27.38 199.17 27.45 199.24 27.52C199.3 27.59 199.36 27.66 199.42 27.73C199.48 27.81 199.54 27.88 199.59 27.96C199.65 28.03 199.7 28.11 199.75 28.19L199.86 28.19L201.58 16.19L205.85 16.19L202.09 43.12L198.01 43.12L198.37 40.55ZM189.07 34.56C189.05 34.72 189.03 34.88 189.03 35.05C189.02 35.21 189.02 35.37 189.02 35.53C189.03 35.69 189.04 35.85 189.06 36.01C189.08 36.17 189.11 36.33 189.15 36.49C189.18 36.64 189.22 36.79 189.27 36.93C189.32 37.08 189.37 37.22 189.44 37.36C189.5 37.5 189.57 37.63 189.65 37.76C189.73 37.89 189.82 38.02 189.91 38.14C190.01 38.26 190.11 38.38 190.22 38.49C190.32 38.6 190.44 38.7 190.56 38.79C190.68 38.89 190.8 38.98 190.93 39.06C191.06 39.14 191.2 39.22 191.34 39.28C191.5 39.36 191.66 39.42 191.83 39.48C192 39.53 192.17 39.58 192.34 39.61C192.51 39.65 192.69 39.67 192.86 39.69C193.04 39.71 193.21 39.71 193.39 39.71C193.57 39.71 193.76 39.7 193.94 39.69C194.13 39.67 194.31 39.64 194.5 39.61C194.68 39.57 194.86 39.53 195.04 39.47C195.21 39.42 195.39 39.35 195.56 39.28C195.72 39.21 195.88 39.14 196.03 39.06C196.19 38.97 196.34 38.89 196.48 38.79C196.63 38.69 196.77 38.59 196.91 38.48C197.05 38.38 197.18 38.26 197.31 38.14C197.43 38.02 197.55 37.9 197.66 37.77C197.78 37.64 197.88 37.51 197.98 37.37C198.09 37.23 198.18 37.09 198.27 36.94C198.36 36.79 198.44 36.64 198.52 36.49C198.59 36.34 198.66 36.18 198.73 36.03C198.79 35.87 198.85 35.71 198.9 35.55C198.95 35.39 198.99 35.23 199.03 35.06C199.06 34.9 199.1 34.73 199.12 34.56C199.14 34.4 199.16 34.24 199.17 34.08C199.18 33.92 199.18 33.76 199.17 33.6C199.17 33.44 199.16 33.28 199.13 33.12C199.11 32.96 199.09 32.8 199.05 32.64C199.02 32.49 198.98 32.34 198.93 32.2C198.88 32.05 198.82 31.91 198.76 31.77C198.69 31.63 198.62 31.5 198.54 31.37C198.46 31.24 198.38 31.11 198.28 30.99C198.19 30.87 198.09 30.75 197.98 30.64C197.87 30.53 197.76 30.43 197.64 30.33C197.52 30.24 197.39 30.15 197.26 30.07C197.13 29.99 197 29.91 196.86 29.85C196.7 29.77 196.53 29.71 196.37 29.65C196.2 29.6 196.03 29.55 195.86 29.52C195.69 29.48 195.51 29.45 195.34 29.44C195.16 29.42 194.98 29.42 194.81 29.42C194.62 29.42 194.44 29.43 194.26 29.44C194.07 29.46 193.89 29.49 193.71 29.52C193.53 29.56 193.35 29.6 193.17 29.66C193 29.71 192.82 29.77 192.65 29.85C192.49 29.91 192.34 29.99 192.18 30.07C192.03 30.15 191.88 30.24 191.74 30.34C191.59 30.44 191.45 30.54 191.32 30.65C191.18 30.75 191.05 30.87 190.92 30.99C190.8 31.11 190.68 31.23 190.56 31.36C190.45 31.49 190.34 31.62 190.24 31.76C190.14 31.9 190.04 32.04 189.95 32.19C189.86 32.34 189.77 32.49 189.69 32.64C189.61 32.79 189.54 32.94 189.48 33.1C189.41 33.26 189.35 33.41 189.3 33.58C189.25 33.74 189.2 33.9 189.16 34.06C189.12 34.23 189.09 34.4 189.07 34.56L189.07 34.56Z" />
			<path id="Path_239" fill-rule="evenodd" class="shp0" d="M211.31 36.06C211.3 36.21 211.3 36.35 211.31 36.5C211.31 36.64 211.33 36.79 211.35 36.93C211.37 37.07 211.4 37.22 211.44 37.36C211.48 37.5 211.52 37.63 211.57 37.77C211.62 37.89 211.67 38.01 211.73 38.12C211.79 38.23 211.86 38.34 211.93 38.45C212 38.55 212.07 38.66 212.15 38.75C212.24 38.85 212.32 38.95 212.41 39.04C212.5 39.12 212.6 39.21 212.7 39.28C212.8 39.36 212.91 39.43 213.01 39.5C213.12 39.57 213.23 39.63 213.35 39.69C213.46 39.74 213.58 39.79 213.7 39.84C213.83 39.89 213.96 39.93 214.1 39.97C214.23 40 214.37 40.03 214.51 40.06C214.65 40.08 214.79 40.1 214.93 40.11C215.07 40.12 215.21 40.13 215.35 40.12C215.59 40.13 215.83 40.12 216.08 40.09C216.32 40.07 216.56 40.03 216.79 39.97C217.03 39.92 217.26 39.85 217.49 39.76C217.71 39.68 217.93 39.58 218.15 39.46C218.35 39.35 218.54 39.24 218.73 39.11C218.91 38.99 219.1 38.86 219.27 38.72C219.45 38.58 219.62 38.44 219.79 38.29C219.95 38.13 220.11 37.97 220.27 37.81L223.01 40.12C222.75 40.41 222.48 40.68 222.2 40.93C221.91 41.19 221.61 41.43 221.3 41.65C220.99 41.87 220.67 42.08 220.33 42.26C220 42.45 219.65 42.62 219.3 42.77C218.99 42.9 218.66 43.01 218.34 43.11C218.01 43.21 217.68 43.29 217.34 43.35C217.01 43.42 216.67 43.47 216.33 43.5C215.99 43.54 215.65 43.55 215.31 43.55C215.01 43.56 214.71 43.55 214.41 43.52C214.11 43.5 213.81 43.46 213.51 43.4C213.21 43.35 212.92 43.28 212.62 43.2C212.33 43.12 212.05 43.02 211.76 42.91C211.25 42.72 210.76 42.47 210.31 42.17C209.85 41.86 209.43 41.51 209.06 41.1C208.69 40.7 208.36 40.26 208.09 39.78C207.83 39.3 207.61 38.79 207.47 38.26C207.38 37.97 207.31 37.66 207.26 37.36C207.21 37.05 207.18 36.74 207.16 36.43C207.14 36.12 207.14 35.81 207.16 35.5C207.17 35.19 207.2 34.88 207.25 34.57C207.3 34.25 207.35 33.93 207.43 33.61C207.5 33.29 207.59 32.98 207.7 32.67C207.8 32.36 207.92 32.06 208.05 31.76C208.19 31.46 208.34 31.17 208.5 30.89C208.65 30.62 208.82 30.36 209 30.1C209.18 29.85 209.37 29.6 209.57 29.36C209.77 29.13 209.98 28.9 210.2 28.68C210.42 28.46 210.65 28.25 210.89 28.05C211.13 27.86 211.37 27.67 211.63 27.49C211.89 27.32 212.15 27.16 212.42 27C212.69 26.85 212.97 26.71 213.25 26.58C213.53 26.46 213.82 26.34 214.11 26.24C214.41 26.13 214.71 26.04 215.02 25.96C215.33 25.88 215.63 25.81 215.95 25.76C216.26 25.7 216.57 25.66 216.89 25.64C217.2 25.61 217.52 25.6 217.84 25.6C218.35 25.56 218.87 25.59 219.38 25.68C219.89 25.77 220.38 25.92 220.86 26.13C221.33 26.34 221.77 26.6 222.18 26.92C222.59 27.23 222.96 27.59 223.29 28C224.52 29.6 224.94 31.9 224.54 34.9L224.36 36.07L211.31 36.06ZM220.54 32.85C220.59 32.59 220.62 32.33 220.61 32.06C220.6 31.8 220.57 31.53 220.5 31.28C220.44 31.02 220.35 30.77 220.23 30.54C220.11 30.3 219.96 30.08 219.79 29.88C219.59 29.68 219.37 29.51 219.14 29.37C218.9 29.22 218.65 29.1 218.39 29.01C218.13 28.91 217.86 28.85 217.59 28.81C217.31 28.78 217.04 28.77 216.76 28.79C216.47 28.78 216.18 28.8 215.9 28.84C215.61 28.88 215.33 28.95 215.06 29.04C214.78 29.14 214.52 29.26 214.27 29.4C214.01 29.54 213.78 29.71 213.55 29.89C213.33 30.09 213.13 30.3 212.94 30.52C212.76 30.74 212.59 30.98 212.44 31.23C212.29 31.48 212.15 31.74 212.04 32.02C211.93 32.29 211.84 32.56 211.77 32.85L220.54 32.85Z" />
			<text id="TM" style="transform: matrix(1,0,0,1,228,21)" >
				<tspan x="0" y="0" class="txt1">TM</tspan>
			</text>
		</g>
	</g>
</svg>